<svg width="277" height="97" viewBox="0 0 277 97" fill="none" xmlns="http://www.w3.org/2000/svg">
<path d="M20.8 64.24C17.12 64.24 13.6533 63.3067 10.4 61.44C6.88 59.2533 4.53333 56.5333 3.36 53.28C2.93333 52.1067 2.61333 51.04 2.4 50.08C2.18667 49.0667 2.08 48.2133 2.08 47.52C2.08 45.8133 2.69333 44.96 3.92 44.96C4.29333 44.96 4.50667 45.1467 4.56 45.52C4.82667 46.5333 5.06667 47.3867 5.28 48.08C5.49333 48.7733 5.68 49.3333 5.84 49.76C6.10667 50.5067 6.45333 51.2 6.88 51.84C7.30667 52.48 7.76 53.0933 8.24 53.68C10.7467 56.5067 14.1067 57.92 18.32 57.92C19.0667 57.92 19.9467 57.76 20.96 57.44C22.08 57.12 22.72 56.96 22.88 56.96C23.04 57.0133 23.12 57.0933 23.12 57.2C23.12 58.16 21.0933 58.64 17.04 58.64C11.28 58.64 7.49333 56.6667 5.68 52.72C8.88 59.8667 13.8933 63.44 20.72 63.44C20.88 63.44 21.0667 63.44 21.28 63.44C21.4933 63.44 21.7067 63.4133 21.92 63.36C22.0267 63.3067 22.2133 63.2267 22.48 63.12C22.8 63.0133 23.1733 62.9067 23.6 62.8C26.0533 62.0533 28.96 59.0933 32.32 53.92C33.5467 52.0533 34.6667 50.16 35.68 48.24C36.7467 46.32 37.68 44.3733 38.48 42.4C39.8133 39.4133 40.8533 36.48 41.6 33.6C41.0667 31.2 39.7333 30 37.6 30C37.2267 30 36.9867 30.0267 36.88 30.08C36.88 29.28 37.2 28.5333 37.84 27.84C38.48 27.0933 39.2267 26.72 40.08 26.72C41.52 26.72 42.2933 27.7867 42.4 29.92C42.88 27.7333 43.2267 25.5733 43.44 23.44C43.6533 21.3067 43.76 19.2533 43.76 17.28C43.76 16.8533 43.76 16.4 43.76 15.92C43.76 15.44 43.7333 14.9867 43.68 14.56C41.8133 14.1333 39.4133 13.6 36.48 12.96C33.5467 12.32 30.16 11.5733 26.32 10.72C23.8133 10.24 21.52 9.86667 19.44 9.6C17.4133 9.33333 15.5733 9.2 13.92 9.2C9.81333 9.2 6.72 10.0267 4.64 11.68C2.98667 13.0133 2.16 14.5067 2.16 16.16C2.16 19.04 4.18667 20.48 8.24 20.48C8.4 20.48 8.48 20.5067 8.48 20.56C8.48 20.7733 7.81333 20.9067 6.48 20.96C6.37333 20.96 6.26667 21.0133 6.16 21.12C6.05333 21.1733 5.92 21.2 5.76 21.2C5.38667 21.2 4.98667 21.0933 4.56 20.88C2.53333 20.1867 1.52 18.7733 1.52 16.64C1.52 16.0533 1.6 15.44 1.76 14.8C1.97333 14.16 2.29333 13.5467 2.72 12.96C5.76 8.42666 10.5867 6.16 17.2 6.16C18.5333 6.16 19.9467 6.24 21.44 6.4C22.9867 6.50666 24.64 6.77333 26.4 7.2L43.36 11.2C42.88 7.73333 41.68 4.82666 39.76 2.48C39.3867 2.10666 39.2 1.76 39.2 1.44C39.2 1.01333 39.44 0.799999 39.92 0.799999C40.1867 0.799999 40.5867 1.01333 41.12 1.44C43.1467 3.52 44.48 6.90667 45.12 11.6C48.0533 12.24 50.64 12.72 52.88 13.04L53.92 11.28C54.3467 10.5867 54.88 9.97333 55.52 9.44C56.16 8.85333 56.88 8.29333 57.68 7.76C59.44 6.74666 61.04 6.24 62.48 6.24C63.2267 6.24 64.08 6.48 65.04 6.96C66.0533 7.44 66.56 8.05333 66.56 8.8C66.56 9.38667 66.32 9.68 65.84 9.68C65.7333 9.68 65.28 9.28 64.48 8.48C63.7867 7.62666 62.9867 7.2 62.08 7.2C60.2133 7.2 58.56 8.74666 57.12 11.84L56.4 13.36C57.0933 13.4133 57.76 13.44 58.4 13.44C59.0933 13.44 59.7067 13.44 60.24 13.44C63.9733 13.44 66.4267 12.8267 67.6 11.6C68.56 10.48 69.04 9.22666 69.04 7.84C69.04 7.09333 68.8267 6.42666 68.4 5.84C67.9733 5.2 67.76 4.88 67.76 4.88C67.76 4.61333 67.92 4.48 68.24 4.48C69.2 4.48 69.68 5.6 69.68 7.84C69.68 13.2267 65.1733 15.92 56.16 15.92H55.52L48.88 36.64C46 45.1733 42.72 51.5733 39.04 55.84C34.1867 61.44 28.1067 64.24 20.8 64.24ZM24.08 63.2C29.9467 62.3467 34.7467 59.0133 38.48 53.2C39.7067 51.2267 40.9067 48.6933 42.08 45.6C43.3067 42.4533 44.5067 38.7733 45.68 34.56C47.0133 29.6533 48.16 25.6267 49.12 22.48C50.08 19.28 50.88 17.0133 51.52 15.68C50.56 15.5733 49.5733 15.4667 48.56 15.36C47.5467 15.2533 46.5067 15.0933 45.44 14.88V16.56C45.44 20.56 44.96 24.72 44 29.04C43.0933 33.3067 41.7333 37.7333 39.92 42.32C35.6 52.9333 30.32 59.8933 24.08 63.2ZM66.1488 60.4C64.2288 60.4 63.2688 59.2 63.2688 56.8C63.2688 55.52 63.7488 53.92 64.7088 52C65.6154 49.8667 66.0688 48.32 66.0688 47.36C66.0688 46.6667 65.8021 46.1333 65.2688 45.76C64.7888 45.3867 64.1754 45.04 63.4288 44.72C62.8954 44.4533 62.3354 44.1333 61.7488 43.76C61.1621 43.3867 60.6821 43.0133 60.3088 42.64C59.9354 43.44 59.1088 44.8267 57.8288 46.8C56.5488 48.7733 55.1621 50.8 53.6688 52.88C53.4554 53.1467 53.2421 53.28 53.0288 53.28C52.8154 53.28 52.7088 53.0933 52.7088 52.72C52.7088 52.3467 52.9221 51.9467 53.3488 51.52C53.7754 50.9867 54.3888 50.1333 55.1888 48.96C55.9888 47.7333 56.7888 46.4267 57.5888 45.04C58.3888 43.6 59.0021 42.3467 59.4288 41.28C59.1621 40.3733 58.9488 39.6 58.7888 38.96C58.6288 38.32 58.5488 37.68 58.5488 37.04C58.5488 35.92 58.8688 34.9067 59.5088 34C60.1488 33.0933 60.9754 32.64 61.9888 32.64C63.4288 32.64 64.1488 33.4933 64.1488 35.2C64.1488 37.0667 63.4288 39.0133 61.9888 41.04C62.2021 41.36 62.4688 41.6267 62.7888 41.84C63.1088 42.0533 63.6154 42.2933 64.3088 42.56C64.6821 42.72 65.0288 42.8267 65.3488 42.88C65.7221 42.9333 66.0421 42.96 66.3088 42.96C66.7354 42.96 67.0821 42.9333 67.3488 42.88C67.6688 42.8267 67.9354 42.8 68.1488 42.8C68.4688 42.8 68.8421 42.9867 69.2688 43.36C69.7488 43.68 69.9888 44.1867 69.9888 44.88C69.9888 45.2533 69.9621 45.4933 69.9088 45.6C69.8554 45.7067 69.6954 46.16 69.4288 46.96C69.2154 47.7067 68.8154 48.7733 68.2288 50.16C67.1621 52.9333 66.6288 54.88 66.6288 56C66.6288 57.4933 67.1354 58.24 68.1488 58.24C69.2688 58.24 70.6021 57.5733 72.1488 56.24C73.7488 54.9067 75.2154 53.3333 76.5488 51.52C76.7088 51.36 76.8421 51.28 76.9488 51.28C77.1621 51.28 77.2688 51.4667 77.2688 51.84C77.2688 52.2133 77.1354 52.56 76.8688 52.88C74.7354 55.7067 72.8154 57.68 71.1088 58.8C69.4021 59.8667 67.7488 60.4 66.1488 60.4ZM77.3538 60.48C75.1671 60.48 74.0738 59.4133 74.0738 57.28C74.0738 55.2533 75.5404 52.4267 78.4738 48.8C81.1404 45.44 83.4604 43.12 85.4338 41.84C87.4071 40.56 89.2471 39.92 90.9538 39.92C92.9804 39.92 93.9938 40.5067 93.9938 41.68C93.9938 41.9467 93.7271 42.3467 93.1938 42.88C92.6604 43.36 92.3671 43.6533 92.3138 43.76C91.3004 45.4133 90.7938 48.7733 90.7938 53.84C90.7938 56.7733 91.4338 58.24 92.7138 58.24C93.8871 58.24 95.2471 57.5467 96.7938 56.16C98.3404 54.7733 99.7804 53.2267 101.114 51.52C101.274 51.36 101.407 51.28 101.514 51.28C101.727 51.28 101.834 51.4133 101.834 51.68C101.834 51.7867 101.78 51.9733 101.674 52.24C101.62 52.5067 101.54 52.72 101.434 52.88C99.2471 55.8133 97.3538 57.7867 95.7538 58.8C94.2071 59.8133 92.6871 60.32 91.1938 60.32C88.7938 60.32 87.6204 57.76 87.6738 52.64C86.6604 54.4533 85.1938 56.16 83.2738 57.76C81.0338 59.5733 79.0604 60.48 77.3538 60.48ZM79.5138 58.32C80.4204 58.32 81.3804 57.9467 82.3938 57.2C85.5404 54.6933 87.5938 50 88.5538 43.12C88.3938 43.12 88.2871 43.0933 88.2338 43.04C87.1671 43.04 85.7538 43.68 83.9938 44.96C82.5004 45.9733 81.3004 47.0667 80.3938 48.24C78.2604 51.0133 77.1938 53.4133 77.1938 55.44C77.1938 57.36 77.9671 58.32 79.5138 58.32ZM106.283 60.16C103.936 60.16 102.763 58.32 102.763 54.64C102.763 52.88 103.083 51.2 103.723 49.6C103.723 49.6 103.51 49.92 103.083 50.56C102.71 51.2 102.15 51.9733 101.403 52.88C101.35 53.04 101.163 53.12 100.843 53.12C100.736 53.12 100.656 53.04 100.603 52.88C100.55 52.72 100.523 52.5867 100.523 52.48C100.523 52.32 100.71 52 101.083 51.52C102.256 49.9733 103.27 48.6133 104.123 47.44C104.976 46.2667 105.91 45.1733 106.923 44.16C107.403 43.68 107.936 43.44 108.523 43.44C109.216 43.44 109.563 43.7333 109.563 44.32C109.563 44.2133 109.376 44.5333 109.003 45.28C108.63 46.0267 108.043 47.2 107.243 48.8C105.75 52.1067 105.003 54.6133 105.003 56.32C105.003 57.7067 105.59 58.4 106.763 58.4C107.883 58.4 109.03 57.8933 110.203 56.88C111.376 55.8133 112.416 54.5067 113.323 52.96C114.283 51.4133 114.976 49.8933 115.403 48.4C115.403 48.1867 115.35 47.8667 115.243 47.44C115.19 47.0133 115.11 46.48 115.003 45.84C114.843 44.88 114.763 44.0533 114.763 43.36C114.763 41.0667 115.723 39.5733 117.643 38.88C118.07 38.72 118.39 38.64 118.603 38.64C119.403 38.64 119.803 39.3333 119.803 40.72C119.803 43.0133 119.11 45.4933 117.723 48.16C117.723 50.3467 118.23 52.1867 119.243 53.68C120.31 55.12 121.59 55.84 123.083 55.84C124.15 55.84 125.243 55.4933 126.363 54.8C127.536 54.1067 128.683 53.0133 129.803 51.52C129.91 51.4133 130.07 51.36 130.283 51.36C130.443 51.36 130.523 51.52 130.523 51.84C130.523 52.16 130.39 52.5067 130.123 52.88C129.43 53.84 128.39 54.8 127.003 55.76C125.67 56.6667 124.23 57.12 122.683 57.12C121.19 57.12 119.803 56.5333 118.523 55.36C117.296 54.1333 116.47 52.5333 116.043 50.56C115.83 51.36 115.403 52.32 114.763 53.44C114.123 54.56 113.27 55.68 112.203 56.8C111.03 58.0267 109.936 58.9067 108.923 59.44C107.91 59.92 107.03 60.16 106.283 60.16ZM137.833 60.64C135.646 60.64 133.753 60.0267 132.153 58.8C130.606 57.52 129.833 55.6 129.833 53.04C129.833 50.2133 130.766 47.3067 132.633 44.32C133.593 42.7733 134.766 41.5467 136.153 40.64C137.54 39.68 138.766 39.2 139.833 39.2C141.38 39.2 142.153 40.1333 142.153 42C142.153 43.6 141.086 45.5467 138.953 47.84C136.98 49.8667 135.113 51.2533 133.353 52C133.3 52.2133 133.246 52.4533 133.193 52.72C133.193 52.9333 133.193 53.1733 133.193 53.44C133.193 56.8 135.193 58.48 139.193 58.48C141.486 58.48 143.62 57.7867 145.593 56.4C147.62 54.96 149.38 53.3333 150.873 51.52C151.14 51.2 151.38 51.04 151.593 51.04C151.806 51.04 151.913 51.1467 151.913 51.36C151.913 51.5733 151.806 51.8667 151.593 52.24C151.38 52.56 151.22 52.7733 151.113 52.88C150.26 54.0533 149.353 55.0933 148.393 56C147.486 56.9067 146.26 57.7867 144.713 58.64C143.593 59.3333 142.42 59.84 141.193 60.16C140.02 60.48 138.9 60.64 137.833 60.64ZM133.673 50.32C134.366 49.9467 135.033 49.52 135.673 49.04C136.366 48.5067 137.033 47.8933 137.673 47.2C139.113 45.4933 139.833 44 139.833 42.72C139.833 41.92 139.593 41.52 139.113 41.52C138.686 41.52 138.126 41.8933 137.433 42.64C136.793 43.3333 136.18 44.2133 135.593 45.28C134.58 47.36 133.94 49.04 133.673 50.32ZM158.851 60.96C153.464 60.96 150.771 56.9867 150.771 49.04C150.771 41.2533 153.331 32.8 158.451 23.68C163.464 14.6133 168.211 10.08 172.691 10.08C174.291 10.08 175.357 11.1733 175.891 13.36V14.4C175.891 18.24 172.931 24.72 167.011 33.84C164.504 37.7867 162.131 41.2267 159.891 44.16C157.704 47.0933 155.651 49.5733 153.731 51.6C154.371 56.4 156.584 58.8 160.371 58.8C162.664 58.8 164.611 58.16 166.211 56.88C167.811 55.5467 169.517 53.76 171.331 51.52C171.651 51.2 171.864 51.04 171.971 51.04C172.131 51.04 172.211 51.1733 172.211 51.44C172.211 51.8133 172.024 52.2933 171.651 52.88C169.357 55.8133 167.197 57.8933 165.171 59.12C163.144 60.3467 161.037 60.96 158.851 60.96ZM153.811 49.6C156.691 46.7733 160.451 41.1733 165.091 32.8C169.997 23.8933 172.451 17.76 172.451 14.4C172.451 12.9067 172.024 12.16 171.171 12.16C167.864 12.16 164.104 16.9067 159.891 26.4C157.917 31.0933 156.397 35.36 155.331 39.2C154.317 43.04 153.811 46.5067 153.811 49.6ZM179.398 60.96C174.011 60.96 171.318 56.9867 171.318 49.04C171.318 41.2533 173.878 32.8 178.997 23.68C184.011 14.6133 188.758 10.08 193.238 10.08C194.838 10.08 195.904 11.1733 196.438 13.36V14.4C196.438 18.24 193.478 24.72 187.558 33.84C185.051 37.7867 182.678 41.2267 180.438 44.16C178.251 47.0933 176.198 49.5733 174.278 51.6C174.918 56.4 177.131 58.8 180.918 58.8C183.211 58.8 185.158 58.16 186.758 56.88C188.358 55.5467 190.064 53.76 191.878 51.52C192.198 51.2 192.411 51.04 192.518 51.04C192.678 51.04 192.758 51.1733 192.758 51.44C192.758 51.8133 192.571 52.2933 192.198 52.88C189.904 55.8133 187.744 57.8933 185.718 59.12C183.691 60.3467 181.584 60.96 179.398 60.96ZM174.358 49.6C177.238 46.7733 180.998 41.1733 185.638 32.8C190.544 23.8933 192.998 17.76 192.998 14.4C192.998 12.9067 192.571 12.16 191.718 12.16C188.411 12.16 184.651 16.9067 180.438 26.4C178.464 31.0933 176.944 35.36 175.878 39.2C174.864 43.04 174.358 46.5067 174.358 49.6ZM174.584 96.4C171.118 96.4 168.424 95.52 166.504 93.76C164.371 91.9467 163.304 89.3867 163.304 86.08C163.304 75.4133 177.544 66.48 206.024 59.28C206.291 56.6667 206.478 54.2667 206.584 52.08C206.744 49.84 206.851 47.84 206.904 46.08C206.531 47.2 206.104 48.2667 205.624 49.28C205.144 50.2933 204.638 51.2533 204.104 52.16C203.358 53.6533 202.078 55.2 200.264 56.8C198.131 58.5067 196.398 59.36 195.064 59.36C194.051 59.36 193.171 58.8 192.424 57.68C191.838 56.6667 191.544 55.6 191.544 54.48C191.544 52.6667 191.998 50.6133 192.904 48.32C193.864 45.44 195.091 44 196.584 44C197.118 44 197.411 44.3467 197.464 45.04C195.384 48.4 194.344 51.4933 194.344 54.32C194.344 55.92 194.984 56.72 196.264 56.72C198.558 56.72 200.984 54.5333 203.544 50.16C205.891 46.2667 207.064 42.9867 207.064 40.32C207.064 39.52 207.704 39.12 208.984 39.12C209.998 39.12 210.504 39.6267 210.504 40.64C210.504 42.56 210.398 45.04 210.184 48.08C210.024 51.0667 209.758 54.6133 209.384 58.72C209.971 58.56 210.771 58.4 211.784 58.24C212.851 58.08 213.758 58 214.504 58C216.531 58 217.544 58.2933 217.544 58.88C217.544 59.1467 217.358 59.28 216.984 59.28C216.824 59.28 216.478 59.28 215.944 59.28C215.411 59.2267 214.851 59.2 214.264 59.2C213.731 59.2 212.904 59.3067 211.784 59.52C210.718 59.7333 209.811 59.9467 209.064 60.16C207.038 75.52 200.344 86.2933 188.984 92.48C186.584 93.76 184.211 94.72 181.864 95.36C179.464 96.0533 177.038 96.4 174.584 96.4ZM177.064 94.08C181.811 94.08 185.651 93.2267 188.584 91.52C198.291 86.0267 204.024 75.76 205.784 60.72C178.904 67.8133 165.464 76 165.464 85.28C165.464 91.1467 169.331 94.08 177.064 94.08Z" fill="white"/>
</svg>
